<svg width="69" height="24" viewBox="0 0 69 24" fill="none" xmlns="http://www.w3.org/2000/svg">
<path fill-rule="evenodd" clip-rule="evenodd" d="M58.3483 24C54.3943 24 51.287 22.1164 49.0261 18.3491C48.191 16.7212 47.7739 15.0696 47.7739 13.3956C47.7739 9.43035 49.6522 6.31383 53.4088 4.04645C55.032 3.20942 56.6785 2.79069 58.3483 2.79069C62.3022 2.79069 65.4095 4.67434 67.6704 8.44207C68.5055 10.0699 68.9231 11.7211 68.9231 13.3956C68.9231 17.3608 67.0443 20.4769 63.2877 22.7442C61.6641 23.5813 60.018 24 58.3483 24ZM66.9051 13.8839V12.9068C66.9051 10.2445 65.5138 7.91876 62.731 5.9301C61.2353 5.18641 59.9366 4.81392 58.8352 4.81392H57.8613C55.2061 4.81392 52.887 6.20926 50.9044 8.99995C50.1619 10.4999 49.7914 11.8023 49.7914 12.9068V13.8839C49.7914 16.5466 51.1828 18.8724 53.9655 20.8606C55.4612 21.6047 56.7595 21.9768 57.8613 21.9768H58.8352C61.4904 21.9768 63.8095 20.5814 65.7921 17.7907C66.5341 16.2908 66.9051 14.9888 66.9051 13.8839ZM43.6622 15.3488H26.6178V15.4188C26.6178 16.6629 27.3365 18.1282 28.7745 19.814C30.3628 21.3027 32.1252 22.0468 34.0617 22.0468H35.0355C35.1281 22.0584 35.1747 22.1047 35.1747 22.1859V23.8604C35.1747 23.9538 35.1281 24 35.0355 24H33.7833C30.7105 24 28.0669 22.4188 25.8525 19.2557C25.0174 17.5933 24.5999 16.105 24.5999 14.7909V13.9534C24.5999 10.8724 26.177 8.22125 29.3308 6.00011C30.9889 5.16264 32.4729 4.74434 33.7833 4.74434H34.618C37.6907 4.74434 40.3343 6.32593 42.5492 9.48825C43.3838 11.1515 43.8014 12.6398 43.8014 13.9534V15.2092C43.8014 15.3025 43.7548 15.3488 43.6622 15.3488ZM41.7839 13.3256C41.7839 12.0815 41.0647 10.6165 39.6272 8.93037C38.0385 7.44212 36.2761 6.69756 34.34 6.69756H34.0617C31.1625 6.69756 28.9132 8.13958 27.3133 11.0232C26.8496 12.0119 26.6178 12.8022 26.6178 13.3956H41.7839V13.3256ZM1.94812 5.0235V11.9302C1.94812 12.0236 1.90158 12.0698 1.80893 12.0698H0.139182C0.0465376 12.0698 0 12.0236 0 11.9302V0H0.0698064L17.2534 18.9769V12.0698C17.265 11.9769 17.3116 11.9302 17.3926 11.9302H19.0623C19.155 11.9419 19.2015 11.9885 19.2015 12.0698V24H19.1317L1.94812 5.0235Z" fill="url(#paint0_linear_577_4)"/>
<defs>
<linearGradient id="paint0_linear_577_4" x1="19.2985" y1="8.34043" x2="19.1408" y2="39.4895" gradientUnits="userSpaceOnUse">
<stop offset="0.236718" stop-color="#260CBC"/>
<stop offset="0.98292" stop-color="#6756FF"/>
</linearGradient>
</defs>
</svg>
